<?xml version="1.0" encoding="utf-8"?>
<!-- Generator: Adobe Illustrator 23.1.1, SVG Export Plug-In . SVG Version: 6.00 Build 0)  -->
<svg version="1.1" id="图层_1" xmlns:svg="http://www.w3.org/2000/svg"
	 xmlns="http://www.w3.org/2000/svg" xmlns:xlink="http://www.w3.org/1999/xlink" x="0px" y="0px" viewBox="0 0 72.9 46"
	 style="enable-background:new 0 0 72.9 46;" xml:space="preserve">
<style type="text/css">
	
		.st0{fill:#840000;fill-opacity:0;stroke:#840000;stroke-width:0.432;stroke-linecap:round;stroke-linejoin:round;stroke-miterlimit:10;}
	.st1{opacity:0;enable-background:new    ;}
	
		.st2{fill:#840000;fill-opacity:0;stroke:#840000;stroke-width:0.864;stroke-linecap:round;stroke-linejoin:round;stroke-miterlimit:10;}
	
		.st3{fill:#840000;fill-opacity:0;stroke:#840000;stroke-width:1.152;stroke-linecap:round;stroke-linejoin:round;stroke-miterlimit:10;}
	.st4{fill:none;}
	.st5{fill:#008484;}
	.st6{font-family:'ArialMT';}
	.st7{font-size:4.752px;}
	.st8{fill:none;stroke:#008484;stroke-width:0.432;stroke-linecap:round;stroke-linejoin:round;}
	
		.st9{fill:#008484;fill-opacity:0;stroke:#008484;stroke-width:0.432;stroke-linecap:round;stroke-linejoin:round;stroke-miterlimit:10;}
	.st10{fill:none;stroke:#840000;stroke-width:1.44;stroke-linecap:round;stroke-linejoin:round;stroke-miterlimit:10;}
	.st11{fill:none;stroke:#840000;stroke-width:0.432;stroke-linecap:round;stroke-linejoin:round;stroke-miterlimit:10;}
	
		.st12{fill:#840000;fill-opacity:0;stroke:#840000;stroke-width:0.72;stroke-linecap:round;stroke-linejoin:round;stroke-miterlimit:10;}
	.st13{letter-spacing:1;}
	
		.st14{fill:#008400;fill-opacity:0;stroke:#008400;stroke-width:0.432;stroke-linecap:round;stroke-linejoin:round;stroke-miterlimit:10;}
	.st15{fill:#008400;stroke:#008400;stroke-width:0.72;stroke-linecap:round;stroke-linejoin:round;stroke-miterlimit:10;}
</style>
<title>SVG Picture created as noname.svg date 2020/12/01 16:56:09</title>
<desc>Picture generated by Eeschema-SVG</desc>
<g transform="translate(0 0) scale(1 1)">
</g>
<g>
	<rect x="300.5" y="217.4" class="st0" width="306.1" height="90.7"/>
</g>
<g>
	<path class="st0" d="M-31.2-219.2v-5.6"/>
</g>
<g>
	<path class="st0" d="M110.6-219.2v-5.6"/>
</g>
<g>
	<path class="st0" d="M252.3-219.2v-5.6"/>
</g>
<g>
	<path class="st0" d="M394-219.2v-5.6"/>
</g>
<g>
	<path class="st0" d="M535.7-219.2v-5.6"/>
</g>
<g>
	<g class="st1">
		<rect x="-102" y="-224.4" class="st4" width="4" height="5.8"/>
		<text transform="matrix(1 0 0 1 -102.0348 -220.2003)" class="st6" style="fill:#840000; font-size:4.896px;">1</text>
	</g>
	<g class="st1">
		<rect x="-102" y="-224.4" class="st4" width="4" height="5.8"/>
		
			<text transform="matrix(1 0 0 1 -102.0368 -220.2018)" class="st6" style="fill:none;stroke:#840000;stroke-width:0.432;stroke-linecap:round;stroke-linejoin:round; font-size:4.896px;">1</text>
	</g>
	<path class="st0" d="M-99.1-220.3h-2.1"/>
	<path class="st0" d="M-100.1-220.3v-3.7l-0.4,0.5l-0.4,0.4l-0.4,0.1"/>
</g>
<g>
	<g class="st1">
		<rect x="39.7" y="-224.4" class="st4" width="4" height="5.8"/>
		<text transform="matrix(1 0 0 1 39.6615 -220.2003)" class="st6" style="fill:#840000; font-size:4.896px;">2</text>
	</g>
	<g class="st1">
		<rect x="39.7" y="-224.4" class="st4" width="4" height="5.8"/>
		
			<text transform="matrix(1 0 0 1 39.659 -220.2018)" class="st6" style="fill:none;stroke:#840000;stroke-width:0.432;stroke-linecap:round;stroke-linejoin:round; font-size:4.896px;">2</text>
	</g>
	<path class="st0" d="M40.5-223.7l0.2-0.1l0.4-0.1H42l0.4,0.1l0.1,0.1l0.1,0.4v0.4l-0.1,0.5l-2.1,2.2h2.2"/>
</g>
<g>
	<g class="st1">
		<rect x="181.4" y="-224.4" class="st4" width="4" height="5.8"/>
		<text transform="matrix(1 0 0 1 181.4291 -220.2003)" class="st6" style="fill:#840000; font-size:4.896px;">3</text>
	</g>
	<g class="st1">
		<rect x="181.4" y="-224.4" class="st4" width="4" height="5.8"/>
		
			<text transform="matrix(1 0 0 1 181.4271 -220.2018)" class="st6" style="fill:none;stroke:#840000;stroke-width:0.432;stroke-linecap:round;stroke-linejoin:round; font-size:4.896px;">3</text>
	</g>
	<path class="st0" d="M182.1-224h2.2l-1.2,1.4h0.6l0.4,0.1l0.1,0.2l0.1,0.4v0.9l-0.1,0.4l-0.1,0.1l-0.4,0.2h-1.1l-0.4-0.2l-0.1-0.1"
		/>
</g>
<g>
	<g class="st1">
		<rect x="323.1" y="-224.4" class="st4" width="4" height="5.8"/>
		<text transform="matrix(1 0 0 1 323.1254 -220.2003)" class="st6" style="fill:#840000; font-size:4.896px;">4</text>
	</g>
	<g class="st1">
		<rect x="323.1" y="-224.4" class="st4" width="4" height="5.8"/>
		
			<text transform="matrix(1 0 0 1 323.1234 -220.2018)" class="st6" style="fill:none;stroke:#840000;stroke-width:0.432;stroke-linecap:round;stroke-linejoin:round; font-size:4.896px;">4</text>
	</g>
	<path class="st0" d="M325.8-222.8v2.4"/>
	<path class="st0" d="M324.9-224.2l-0.9,2.7h2.3"/>
</g>
<g>
	<g class="st1">
		<rect x="464.9" y="-224.4" class="st4" width="4" height="5.8"/>
		<text transform="matrix(1 0 0 1 464.8929 -220.2003)" class="st6" style="fill:#840000; font-size:4.896px;">5</text>
	</g>
	<g class="st1">
		<rect x="464.9" y="-224.4" class="st4" width="4" height="5.8"/>
		
			<text transform="matrix(1 0 0 1 464.891 -220.2018)" class="st6" style="fill:none;stroke:#840000;stroke-width:0.432;stroke-linecap:round;stroke-linejoin:round; font-size:4.896px;">5</text>
	</g>
	<path class="st0" d="M467.7-224H466l-0.2,1.7l0.2-0.2l0.4-0.1h0.9l0.4,0.1l0.1,0.2l0.1,0.4v0.9l-0.1,0.4l-0.1,0.1l-0.4,0.2h-0.9
		l-0.4-0.2l-0.2-0.1"/>
</g>
<g>
	<g class="st1">
		<rect x="606.6" y="-224.4" class="st4" width="4" height="5.8"/>
		<text transform="matrix(1 0 0 1 606.5892 -220.2003)" class="st6" style="fill:#840000; font-size:4.896px;">6</text>
	</g>
	<g class="st1">
		<rect x="606.6" y="-224.4" class="st4" width="4" height="5.8"/>
		
			<text transform="matrix(1 0 0 1 606.5873 -220.2018)" class="st6" style="fill:none;stroke:#840000;stroke-width:0.432;stroke-linecap:round;stroke-linejoin:round; font-size:4.896px;">6</text>
	</g>
	<path class="st0" d="M609.3-224h-0.7l-0.4,0.1l-0.1,0.1l-0.4,0.6l-0.2,0.6v1.4l0.2,0.4l0.1,0.1l0.4,0.2h0.7l0.4-0.2l0.1-0.1
		l0.1-0.4v-0.9l-0.1-0.4l-0.1-0.2l-0.4-0.1h-0.7l-0.4,0.1l-0.1,0.2l-0.2,0.4"/>
</g>
<g>
	<path class="st0" d="M-31.2,308.1v5.6"/>
</g>
<g>
	<path class="st0" d="M110.6,308.1v5.6"/>
</g>
<g>
	<path class="st0" d="M252.3,308.1v5.6"/>
</g>
<g>
	<path class="st0" d="M394,308.1v5.6"/>
</g>
<g>
	<path class="st0" d="M535.7,308.1v5.6"/>
</g>
<g>
	<g class="st1">
		<rect x="-102" y="308.5" class="st4" width="4" height="5.8"/>
		<text transform="matrix(1 0 0 1 -102.0348 312.7436)" class="st6" style="fill:#840000; font-size:4.896px;">1</text>
	</g>
	<g class="st1">
		<rect x="-102" y="308.5" class="st4" width="4" height="5.8"/>
		
			<text transform="matrix(1 0 0 1 -102.0368 312.7416)" class="st6" style="fill:none;stroke:#840000;stroke-width:0.432;stroke-linecap:round;stroke-linejoin:round; font-size:4.896px;">1</text>
	</g>
	<path class="st0" d="M-99.1,312.6h-2.1"/>
	<path class="st0" d="M-100.1,312.6v-3.7l-0.4,0.5l-0.4,0.4l-0.4,0.1"/>
</g>
<g>
	<g class="st1">
		<rect x="39.7" y="308.5" class="st4" width="4" height="5.8"/>
		<text transform="matrix(1 0 0 1 39.6615 312.7436)" class="st6" style="fill:#840000; font-size:4.896px;">2</text>
	</g>
	<g class="st1">
		<rect x="39.7" y="308.5" class="st4" width="4" height="5.8"/>
		
			<text transform="matrix(1 0 0 1 39.659 312.7416)" class="st6" style="fill:none;stroke:#840000;stroke-width:0.432;stroke-linecap:round;stroke-linejoin:round; font-size:4.896px;">2</text>
	</g>
	<path class="st0" d="M40.5,309.2l0.2-0.1l0.4-0.1H42l0.4,0.1l0.1,0.1l0.1,0.4v0.4l-0.1,0.5l-2.1,2.2h2.2"/>
</g>
<g>
	<g class="st1">
		<rect x="181.4" y="308.5" class="st4" width="4" height="5.8"/>
		<text transform="matrix(1 0 0 1 181.4291 312.7436)" class="st6" style="fill:#840000; font-size:4.896px;">3</text>
	</g>
	<g class="st1">
		<rect x="181.4" y="308.5" class="st4" width="4" height="5.8"/>
		
			<text transform="matrix(1 0 0 1 181.4271 312.7416)" class="st6" style="fill:none;stroke:#840000;stroke-width:0.432;stroke-linecap:round;stroke-linejoin:round; font-size:4.896px;">3</text>
	</g>
	<path class="st0" d="M182.1,308.9h2.2l-1.2,1.4h0.6l0.4,0.1l0.1,0.2l0.1,0.4v0.9l-0.1,0.4l-0.1,0.1l-0.4,0.2h-1.1l-0.4-0.2
		l-0.1-0.1"/>
</g>
<g>
	<g class="st1">
		<rect x="323.1" y="308.5" class="st4" width="4" height="5.8"/>
		<text transform="matrix(1 0 0 1 323.1254 312.7436)" class="st6" style="fill:#840000; font-size:4.896px;">4</text>
	</g>
	<g class="st1">
		<rect x="323.1" y="308.5" class="st4" width="4" height="5.8"/>
		
			<text transform="matrix(1 0 0 1 323.1234 312.7416)" class="st6" style="fill:none;stroke:#840000;stroke-width:0.432;stroke-linecap:round;stroke-linejoin:round; font-size:4.896px;">4</text>
	</g>
	<path class="st0" d="M325.8,310.2v2.4"/>
	<path class="st0" d="M324.9,308.7l-0.9,2.7h2.3"/>
</g>
<g>
	<g class="st1">
		<rect x="464.9" y="308.5" class="st4" width="4" height="5.8"/>
		<text transform="matrix(1 0 0 1 464.8929 312.7436)" class="st6" style="fill:#840000; font-size:4.896px;">5</text>
	</g>
	<g class="st1">
		<rect x="464.9" y="308.5" class="st4" width="4" height="5.8"/>
		
			<text transform="matrix(1 0 0 1 464.891 312.7416)" class="st6" style="fill:none;stroke:#840000;stroke-width:0.432;stroke-linecap:round;stroke-linejoin:round; font-size:4.896px;">5</text>
	</g>
	<path class="st0" d="M467.7,308.9H466l-0.2,1.7l0.2-0.2l0.4-0.1h0.9l0.4,0.1l0.1,0.2l0.1,0.4v0.9l-0.1,0.4l-0.1,0.1l-0.4,0.2h-0.9
		l-0.4-0.2l-0.2-0.1"/>
</g>
<g>
	<g class="st1">
		<rect x="606.6" y="308.5" class="st4" width="4" height="5.8"/>
		<text transform="matrix(1 0 0 1 606.5892 312.7436)" class="st6" style="fill:#840000; font-size:4.896px;">6</text>
	</g>
	<g class="st1">
		<rect x="606.6" y="308.5" class="st4" width="4" height="5.8"/>
		
			<text transform="matrix(1 0 0 1 606.5873 312.7416)" class="st6" style="fill:none;stroke:#840000;stroke-width:0.432;stroke-linecap:round;stroke-linejoin:round; font-size:4.896px;">6</text>
	</g>
	<path class="st0" d="M609.3,308.9h-0.7l-0.4,0.1l-0.1,0.1l-0.4,0.6l-0.2,0.6v1.4l0.2,0.4l0.1,0.1l0.4,0.2h0.7l0.4-0.2l0.1-0.1
		l0.1-0.4V311l-0.1-0.4l-0.1-0.2l-0.4-0.1h-0.7l-0.4,0.1l-0.1,0.2l-0.2,0.4"/>
</g>
<g>
	<path class="st0" d="M-172.9-83.1h5.6"/>
</g>
<g>
	<path class="st0" d="M-172.9,58.7h5.6"/>
</g>
<g>
	<path class="st0" d="M-172.9,200.4h5.6"/>
</g>
<g>
	<g class="st1">
		<rect x="-171.7" y="-156.4" class="st4" width="3.6" height="5.8"/>
		<text transform="matrix(1 0 0 1 -171.7155 -152.1602)" class="st6" style="fill:#840000; font-size:4.896px;">A</text>
	</g>
	<g class="st1">
		<rect x="-171.7" y="-156.4" class="st4" width="3.6" height="5.8"/>
		
			<text transform="matrix(1 0 0 1 -171.7189 -152.1617)" class="st6" style="fill:none;stroke:#840000;stroke-width:0.432;stroke-linecap:round;stroke-linejoin:round; font-size:4.896px;">A</text>
	</g>
	<path class="st0" d="M-171-153.4h1.8"/>
	<path class="st0" d="M-171.3-152.3l1.2-3.7l1.2,3.7"/>
</g>
<g>
	<g class="st1">
		<rect x="-171.7" y="-14.7" class="st4" width="4.1" height="5.8"/>
		<text transform="matrix(1 0 0 1 -171.7077 -10.4644)" class="st6" style="fill:#840000; font-size:4.896px;">B</text>
	</g>
	<g class="st1">
		<rect x="-171.7" y="-14.7" class="st4" width="4.1" height="5.8"/>
		
			<text transform="matrix(1 0 0 1 -171.7096 -10.4659)" class="st6" style="fill:none;stroke:#840000;stroke-width:0.432;stroke-linecap:round;stroke-linejoin:round; font-size:4.896px;">B</text>
	</g>
	<path class="st0" d="M-169.9-12.6l0.5,0.1l0.2,0.2l0.1,0.4v0.5l-0.1,0.4l-0.2,0.1l-0.3,0.2h-1.4v-3.7h1.2l0.4,0.1l0.1,0.1l0.2,0.4
		v0.4l-0.2,0.4l-0.1,0.1L-169.9-12.6h-1.2"/>
</g>
<g>
	<g class="st1">
		<rect x="-171.8" y="127.1" class="st4" width="4.1" height="5.8"/>
		<text transform="matrix(1 0 0 1 -171.8424 131.3036)" class="st6" style="fill:#840000; font-size:4.896px;">C</text>
	</g>
	<g class="st1">
		<rect x="-171.8" y="127.1" class="st4" width="4.1" height="5.8"/>
		
			<text transform="matrix(1 0 0 1 -171.8444 131.3022)" class="st6" style="fill:none;stroke:#840000;stroke-width:0.432;stroke-linecap:round;stroke-linejoin:round; font-size:4.896px;">C</text>
	</g>
	<path class="st0" d="M-169,130.8l-0.1,0.1l-0.5,0.2h-0.4l-0.6-0.2l-0.3-0.4l-0.2-0.4l-0.1-0.6V129l0.1-0.6l0.2-0.4l0.3-0.4l0.6-0.1
		h0.4l0.5,0.1l0.1,0.1"/>
</g>
<g>
	<g class="st1">
		<rect x="-171.8" y="268.8" class="st4" width="4.1" height="5.8"/>
		<text transform="matrix(1 0 0 1 -171.8424 272.9994)" class="st6" style="fill:#840000; font-size:4.896px;">D</text>
	</g>
	<g class="st1">
		<rect x="-171.8" y="268.8" class="st4" width="4.1" height="5.8"/>
		
			<text transform="matrix(1 0 0 1 -171.8444 272.9975)" class="st6" style="fill:none;stroke:#840000;stroke-width:0.432;stroke-linecap:round;stroke-linejoin:round; font-size:4.896px;">D</text>
	</g>
	<path class="st0" d="M-171.1,272.9v-3.7h0.9l0.6,0.1l0.3,0.4l0.2,0.4l0.1,0.6v0.6l-0.1,0.6l-0.2,0.4l-0.3,0.4l-0.6,0.2H-171.1"/>
</g>
<g>
	<path class="st0" d="M612.3-83.1h-5.6"/>
</g>
<g>
	<path class="st0" d="M612.3,58.7h-5.6"/>
</g>
<g>
	<path class="st0" d="M612.3,200.4h-5.6"/>
</g>
<g>
	<g class="st1">
		<rect x="607.8" y="-156.4" class="st4" width="3.6" height="5.8"/>
		<text transform="matrix(1 0 0 1 607.8285 -152.1602)" class="st6" style="fill:#840000; font-size:4.896px;">A</text>
	</g>
	<g class="st1">
		<rect x="607.8" y="-156.4" class="st4" width="3.6" height="5.8"/>
		
			<text transform="matrix(1 0 0 1 607.8246 -152.1617)" class="st6" style="fill:none;stroke:#840000;stroke-width:0.432;stroke-linecap:round;stroke-linejoin:round; font-size:4.896px;">A</text>
	</g>
	<path class="st0" d="M608.5-153.4h1.8"/>
	<path class="st0" d="M608.2-152.3l1.2-3.7l1.2,3.7"/>
</g>
<g>
	<g class="st1">
		<rect x="607.8" y="-14.7" class="st4" width="4.1" height="5.8"/>
		<text transform="matrix(1 0 0 1 607.8363 -10.4644)" class="st6" style="fill:#840000; font-size:4.896px;">B</text>
	</g>
	<g class="st1">
		<rect x="607.8" y="-14.7" class="st4" width="4.1" height="5.8"/>
		
			<text transform="matrix(1 0 0 1 607.8344 -10.4659)" class="st6" style="fill:none;stroke:#840000;stroke-width:0.432;stroke-linecap:round;stroke-linejoin:round; font-size:4.896px;">B</text>
	</g>
	<path class="st0" d="M609.7-12.6l0.5,0.1l0.2,0.2l0.1,0.4v0.5l-0.1,0.4l-0.2,0.1l-0.3,0.2h-1.4v-3.7h1.2l0.4,0.1l0.1,0.1l0.2,0.4
		v0.4l-0.2,0.4l-0.1,0.1L609.7-12.6h-1.2"/>
</g>
<g>
	<g class="st1">
		<rect x="607.7" y="127.1" class="st4" width="4.1" height="5.8"/>
		<text transform="matrix(1 0 0 1 607.7015 131.3036)" class="st6" style="fill:#840000; font-size:4.896px;">C</text>
	</g>
	<g class="st1">
		<rect x="607.7" y="127.1" class="st4" width="4.1" height="5.8"/>
		
			<text transform="matrix(1 0 0 1 607.6996 131.3022)" class="st6" style="fill:none;stroke:#840000;stroke-width:0.432;stroke-linecap:round;stroke-linejoin:round; font-size:4.896px;">C</text>
	</g>
	<path class="st0" d="M610.5,130.8l-0.1,0.1l-0.5,0.2h-0.4l-0.6-0.2l-0.3-0.4l-0.2-0.4l-0.1-0.6V129l0.1-0.6l0.2-0.4l0.3-0.4
		l0.6-0.1h0.4l0.5,0.1l0.1,0.1"/>
</g>
<g>
	<g class="st1">
		<rect x="607.7" y="268.8" class="st4" width="4.1" height="5.8"/>
		<text transform="matrix(1 0 0 1 607.7015 272.9994)" class="st6" style="fill:#840000; font-size:4.896px;">D</text>
	</g>
	<g class="st1">
		<rect x="607.7" y="268.8" class="st4" width="4.1" height="5.8"/>
		
			<text transform="matrix(1 0 0 1 607.6996 272.9975)" class="st6" style="fill:none;stroke:#840000;stroke-width:0.432;stroke-linecap:round;stroke-linejoin:round; font-size:4.896px;">D</text>
	</g>
	<path class="st0" d="M608.5,272.9v-3.7h0.9l0.6,0.1l0.3,0.4l0.2,0.4l0.1,0.6v0.6l-0.1,0.6l-0.2,0.4l-0.3,0.4l-0.6,0.2H608.5"/>
</g>
<g>
	<g class="st1">
		<rect x="365.7" y="291.5" class="st4" width="19.9" height="6.6"/>
		<text transform="matrix(1 0 0 1 365.6771 296.3275)"><tspan x="0" y="0" class="st6 st13" style="fill:#840000; font-size:5.616px;">Date</tspan><tspan x="18.3" y="0" class="st6" style="fill:#840000; font-size:5.616px;">:</tspan></text>
	</g>
	<g class="st1">
		<rect x="365.7" y="291.5" class="st4" width="19.9" height="6.6"/>
		<text transform="matrix(1 0 0 1 365.6752 296.3256)"><tspan x="0" y="0" class="st6 st13" style="fill:none;stroke:#840000;stroke-width:0.432;stroke-linecap:round;stroke-linejoin:round; font-size:5.616px;">Date</tspan><tspan x="18.3" y="0" class="st6" style="fill:none;stroke:#840000;stroke-width:0.432;stroke-linecap:round;stroke-linejoin:round; font-size:5.616px;">:</tspan></text>
	</g>
	<path class="st0" d="M366.9,296.1v-4.2h1l0.6,0.2l0.4,0.4l0.1,0.4l0.2,0.8v0.6l-0.2,0.8l-0.1,0.4l-0.4,0.4l-0.6,0.2H366.9"/>
	<path class="st0" d="M372.9,296.1v-2.2l-0.2-0.4l-0.4-0.2h-0.8l-0.4,0.2"/>
	<path class="st0" d="M372.9,295.9l-0.4,0.2h-1l-0.4-0.2l-0.2-0.4v-0.4l0.2-0.4l0.4-0.2h1l0.4-0.2"/>
	<path class="st0" d="M374.4,293.3h1.6"/>
	<path class="st0" d="M375,291.9v3.7l0.2,0.4l0.4,0.2h0.4"/>
	<path class="st0" d="M379,295.9l-0.4,0.2h-0.9l-0.4-0.2l-0.2-0.4v-1.7l0.2-0.4l0.4-0.2h0.9l0.4,0.2l0.2,0.4v0.4l-2,0.4"/>
	<path class="st0" d="M381,295.8l0.2,0.1l-0.2,0.2l-0.2-0.2L381,295.8v0.4"/>
	<path class="st0" d="M381,293.5l0.2,0.1l-0.2,0.2l-0.2-0.2L381,293.5v0.4"/>
</g>
<g>
	<path class="st0" d="M300.5,298.2h306.1"/>
</g>
<g>
	<g class="st1">
		<rect x="303.3" y="299.4" class="st4" width="136.6" height="6.6"/>
		<text transform="matrix(1 0 0 1 303.3256 304.2475)"><tspan x="0" y="0" class="st6" style="fill:#840000; font-size:5.616px;">KiCad</tspan><tspan x="15.3" y="0" class="st6" style="fill:#840000; font-size:5.616px; letter-spacing:11;"> </tspan><tspan x="28.8" y="0" class="st6" style="fill:#840000; font-size:5.616px;">E.D.A.</tspan><tspan x="45" y="0" class="st6" style="fill:#840000; font-size:5.616px; letter-spacing:11;"> </tspan><tspan x="58.5" y="0" class="st6" style="fill:#840000; font-size:5.616px;">eeschema</tspan><tspan x="84.4" y="0" class="st6" style="fill:#840000; font-size:5.616px; letter-spacing:11;"> </tspan><tspan x="97.9" y="0" class="st6" style="fill:#840000; font-size:5.616px;">(5.1.7-0-10_14)</tspan></text>
	</g>
	<g class="st1">
		<rect x="303.3" y="299.4" class="st4" width="136.6" height="6.6"/>
		<text transform="matrix(1 0 0 1 303.3236 304.2455)"><tspan x="0" y="0" class="st6" style="fill:none;stroke:#840000;stroke-width:0.432;stroke-linecap:round;stroke-linejoin:round; font-size:5.616px;">KiCad</tspan><tspan x="15.3" y="0" class="st6" style="fill:none;stroke:#840000;stroke-width:0.432;stroke-linecap:round;stroke-linejoin:round; font-size:5.616px; letter-spacing:11;"> </tspan><tspan x="28.8" y="0" class="st6" style="fill:none;stroke:#840000;stroke-width:0.432;stroke-linecap:round;stroke-linejoin:round; font-size:5.616px;">E.D.A.</tspan><tspan x="45" y="0" class="st6" style="fill:none;stroke:#840000;stroke-width:0.432;stroke-linecap:round;stroke-linejoin:round; font-size:5.616px; letter-spacing:11;"> </tspan><tspan x="58.5" y="0" class="st6" style="fill:none;stroke:#840000;stroke-width:0.432;stroke-linecap:round;stroke-linejoin:round; font-size:5.616px;">eeschema</tspan><tspan x="84.4" y="0" class="st6" style="fill:none;stroke:#840000;stroke-width:0.432;stroke-linecap:round;stroke-linejoin:round; font-size:5.616px; letter-spacing:11;"> </tspan><tspan x="97.9" y="0" class="st6" style="fill:none;stroke:#840000;stroke-width:0.432;stroke-linecap:round;stroke-linejoin:round; font-size:5.616px;">(5.1.7-0-10_14)</tspan></text>
	</g>
	<path class="st0" d="M304.5,304v-4.2"/>
	<path class="st0" d="M306.9,304l-1.8-2.4"/>
	<path class="st0" d="M306.9,299.8l-2.4,2.4"/>
	<path class="st0" d="M308.8,304v-2.8"/>
	<path class="st0" d="M308.8,299.8l-0.2,0.2l0.2,0.2l0.1-0.2L308.8,299.8v0.4"/>
	<path class="st0" d="M313.2,303.7l-0.1,0.1l-0.6,0.2H312l-0.6-0.2l-0.4-0.4l-0.1-0.4l-0.2-0.8v-0.6l0.2-0.8l0.1-0.4l0.4-0.4
		l0.6-0.2h0.4l0.6,0.2l0.1,0.2"/>
	<path class="st0" d="M316.9,304v-2.2l-0.2-0.4l-0.4-0.2h-0.9l-0.4,0.2"/>
	<path class="st0" d="M316.9,303.8l-0.4,0.2h-1l-0.4-0.2l-0.2-0.4V303l0.2-0.4l0.4-0.2h1l0.4-0.2"/>
	<path class="st0" d="M320.7,304v-4.2"/>
	<path class="st0" d="M320.7,303.8l-0.4,0.2h-0.9l-0.4-0.2l-0.2-0.1l-0.2-0.4V302l0.2-0.4l0.2-0.1l0.4-0.2h0.9l0.4,0.2"/>
	<path class="st0" d="M325.9,301.8h1.4"/>
	<path class="st0" d="M327.9,304h-2v-4.2h2"/>
	<path class="st0" d="M329.8,303.7l0.2,0.1l-0.2,0.2l-0.2-0.2L329.8,303.7v0.4"/>
	<path class="st0" d="M331.8,304v-4.2h1l0.6,0.2l0.4,0.4l0.2,0.4l0.2,0.8v0.6l-0.2,0.8l-0.2,0.4l-0.4,0.4l-0.6,0.2H331.8"/>
	<path class="st0" d="M336.1,303.7l0.2,0.1l-0.2,0.2l-0.2-0.2L336.1,303.7v0.4"/>
	<path class="st0" d="M337.9,302.8h2"/>
	<path class="st0" d="M337.5,304l1.4-4.2l1.4,4.2"/>
	<path class="st0" d="M341.8,303.7l0.1,0.1l-0.1,0.2l-0.2-0.2L341.8,303.7v0.4"/>
	<path class="st0" d="M351.9,303.8l-0.4,0.2h-0.8l-0.4-0.2l-0.2-0.4v-1.7l0.2-0.4l0.4-0.2h0.8l0.4,0.2l0.2,0.4v0.4l-2,0.4"/>
	<path class="st0" d="M355.5,303.8l-0.4,0.2h-0.8l-0.4-0.2l-0.2-0.4v-1.7l0.2-0.4l0.4-0.2h0.8l0.4,0.2l0.1,0.4v0.4l-2,0.4"/>
	<path class="st0" d="M357.3,303.8l0.4,0.2h0.9l0.4-0.2l0.2-0.4v-0.2l-0.2-0.4l-0.4-0.1h-0.6l-0.4-0.2l-0.2-0.4v-0.2l0.2-0.4
		l0.4-0.2h0.6l0.4,0.2"/>
	<path class="st0" d="M362.8,303.8l-0.4,0.2h-0.8l-0.4-0.2l-0.2-0.1l-0.1-0.4V302l0.1-0.4l0.2-0.1l0.4-0.2h0.8l0.4,0.2"/>
	<path class="st0" d="M364.6,304v-4.2"/>
	<path class="st0" d="M366.4,304v-2.2l-0.2-0.4l-0.4-0.2h-0.6l-0.4,0.2l-0.2,0.1"/>
	<path class="st0" d="M370.1,303.8l-0.4,0.2h-0.8l-0.4-0.2l-0.1-0.4v-1.7l0.1-0.4l0.4-0.2h0.8l0.4,0.2l0.2,0.4v0.4l-2,0.4"/>
	<path class="st0" d="M372.1,304v-2.8"/>
	<path class="st0" d="M372.1,301.6l0.2-0.1l0.4-0.2h0.6l0.4,0.2l0.2,0.4v2.2"/>
	<path class="st0" d="M373.9,301.8l0.2-0.4l0.4-0.2h0.6l0.4,0.2l0.2,0.4v2.2"/>
	<path class="st0" d="M379.6,304v-2.2l-0.2-0.4l-0.4-0.2h-0.8l-0.4,0.2"/>
	<path class="st0" d="M379.6,303.8l-0.4,0.2h-1l-0.4-0.2l-0.2-0.4V303l0.2-0.4l0.4-0.2h1l0.4-0.2"/>
	<path class="st0" d="M386.1,305.7l-0.2-0.2l-0.4-0.6l-0.1-0.4l-0.2-0.6l-0.2-1V302l0.2-1l0.2-0.6l0.1-0.4l0.4-0.6l0.2-0.2"/>
	<path class="st0" d="M389.7,299.8h-2l-0.2,2l0.2-0.2l0.4-0.1h1l0.4,0.1l0.1,0.2l0.2,0.4v1l-0.2,0.4l-0.1,0.1l-0.4,0.2h-1l-0.4-0.2
		l-0.2-0.1"/>
	<path class="st0" d="M391.7,303.7l0.2,0.1l-0.2,0.2l-0.1-0.2L391.7,303.7v0.4"/>
	<path class="st0" d="M395.9,304h-2.4"/>
	<path class="st0" d="M394.8,304v-4.2l-0.4,0.6l-0.4,0.4l-0.4,0.2"/>
	<path class="st0" d="M397.8,303.7l0.2,0.1l-0.2,0.2l-0.2-0.2L397.8,303.7v0.4"/>
	<path class="st0" d="M399.4,299.8h2.9l-1.9,4.2"/>
	<path class="st0" d="M403.8,302.4h3.2"/>
	<path class="st0" d="M409.9,299.8h0.4l0.4,0.2l0.1,0.2l0.2,0.4l0.2,0.9v1l-0.2,0.8l-0.2,0.4l-0.1,0.1l-0.4,0.2h-0.4l-0.4-0.2
		l-0.2-0.1l-0.2-0.4l-0.2-0.8v-1l0.2-0.9l0.2-0.4l0.2-0.2L409.9,299.8"/>
	<path class="st0" d="M413.1,302.4h3.2"/>
	<path class="st0" d="M420.6,304h-2.4"/>
	<path class="st0" d="M419.4,304v-4.2l-0.4,0.6l-0.4,0.4l-0.4,0.2"/>
	<path class="st0" d="M423.3,299.8h0.4l0.4,0.2l0.2,0.2l0.2,0.4l0.1,0.9v1l-0.1,0.8l-0.2,0.4l-0.2,0.1l-0.4,0.2h-0.4l-0.4-0.2
		l-0.2-0.1l-0.1-0.4l-0.2-0.8v-1l0.2-0.9l0.1-0.4l0.2-0.2L423.3,299.8"/>
	<path class="st0" d="M425.5,304.5h3.2"/>
	<path class="st0" d="M432,304h-2.4"/>
	<path class="st0" d="M430.8,304v-4.2l-0.4,0.6l-0.4,0.4l-0.4,0.2"/>
	<path class="st0" d="M435.6,301.2v2.8"/>
	<path class="st0" d="M434.6,299.6l-1,3.1h2.7"/>
	<path class="st0" d="M437.4,305.7l0.2-0.2l0.4-0.6l0.2-0.4l0.1-0.6l0.2-1V302l-0.2-1l-0.1-0.6L438,300l-0.4-0.6l-0.2-0.2"/>
</g>
<g>
	<path class="st0" d="M300.5,289.7h306.1"/>
</g>
<g>
	<g class="st1">
		<rect x="544.2" y="291.5" class="st4" width="16.8" height="6.6"/>
		<text transform="matrix(1 0 0 1 544.2377 296.3275)"><tspan x="0" y="0" class="st6 st13" style="fill:#840000; font-size:5.616px;">Rev</tspan><tspan x="15.3" y="0" class="st6" style="fill:#840000; font-size:5.616px;">:</tspan></text>
	</g>
	<g class="st1">
		<rect x="544.2" y="291.5" class="st4" width="16.9" height="6.6"/>
		<text transform="matrix(1 0 0 1 544.2328 296.3246)"><tspan x="0" y="0" class="st6 st13" style="fill:none;stroke:#840000;stroke-width:0.864;stroke-linecap:round;stroke-linejoin:round; font-size:5.616px;">Rev</tspan><tspan x="15.3" y="0" class="st6" style="fill:none;stroke:#840000;stroke-width:0.864;stroke-linecap:round;stroke-linejoin:round; font-size:5.616px;">:</tspan></text>
	</g>
	<path class="st2" d="M548.2,296.1l-1.4-2"/>
	<path class="st2" d="M545.7,296.1v-4.2h1.7l0.4,0.2l0.2,0.2l0.2,0.4v0.6l-0.2,0.4l-0.2,0.2l-0.4,0.2h-1.7"/>
	<path class="st2" d="M551.7,295.9l-0.4,0.2h-0.8l-0.4-0.2l-0.1-0.4v-1.7l0.1-0.4l0.4-0.2h0.8l0.4,0.2l0.2,0.4v0.4l-2,0.4"/>
	<path class="st2" d="M553.2,293.3l1,2.8l1-2.8"/>
	<path class="st2" d="M556.9,295.8l0.2,0.1l-0.2,0.2l-0.2-0.2L556.9,295.8v0.4"/>
	<path class="st2" d="M556.9,293.5l0.2,0.1l-0.2,0.2l-0.2-0.2L556.9,293.5v0.4"/>
</g>
<g>
	<g class="st1">
		<rect x="303.3" y="291.5" class="st4" width="27.2" height="6.6"/>
		<text transform="matrix(1 0 0 1 303.3256 296.3275)"><tspan x="0" y="0" class="st6" style="fill:#840000; font-size:5.616px;">Size:</tspan><tspan x="12.5" y="0" class="st6" style="fill:#840000; font-size:5.616px; letter-spacing:6;"> </tspan><tspan x="20.3" y="0" class="st6" style="fill:#840000; font-size:5.616px;">A4</tspan></text>
	</g>
	<g class="st1">
		<rect x="303.3" y="291.5" class="st4" width="27.2" height="6.6"/>
		<text transform="matrix(1 0 0 1 303.3236 296.3256)"><tspan x="0" y="0" class="st6" style="fill:none;stroke:#840000;stroke-width:0.432;stroke-linecap:round;stroke-linejoin:round; font-size:5.616px;">Size:</tspan><tspan x="12.5" y="0" class="st6" style="fill:none;stroke:#840000;stroke-width:0.432;stroke-linecap:round;stroke-linejoin:round; font-size:5.616px; letter-spacing:6;"> </tspan><tspan x="20.4" y="0" class="st6" style="fill:none;stroke:#840000;stroke-width:0.432;stroke-linecap:round;stroke-linejoin:round; font-size:5.616px;">A4</tspan></text>
	</g>
	<path class="st0" d="M304.3,295.9l0.6,0.2h1l0.4-0.2l0.2-0.1l0.1-0.4v-0.4l-0.1-0.4l-0.2-0.2l-0.4-0.2l-0.8-0.2l-0.4-0.2l-0.1-0.1
		l-0.2-0.4v-0.4l0.2-0.4l0.1-0.2l0.4-0.2h1l0.6,0.2"/>
	<path class="st0" d="M308.6,296.1v-2.8"/>
	<path class="st0" d="M308.6,291.9l-0.2,0.2l0.2,0.2l0.2-0.2L308.6,291.9v0.4"/>
	<path class="st0" d="M310.2,293.3h2.2l-2.2,2.8h2.2"/>
	<path class="st0" d="M315.6,295.9l-0.4,0.2h-0.8l-0.4-0.2l-0.2-0.4v-1.7l0.2-0.4l0.4-0.2h0.8l0.4,0.2l0.2,0.4v0.4l-2,0.4"/>
	<path class="st0" d="M317.7,295.8l0.2,0.1l-0.2,0.2l-0.2-0.2L317.7,295.8v0.4"/>
	<path class="st0" d="M317.7,293.5l0.2,0.1l-0.2,0.2l-0.2-0.2L317.7,293.5v0.4"/>
	<path class="st0" d="M322.7,294.9h2.1"/>
	<path class="st0" d="M322.3,296.1l1.4-4.2l1.4,4.2"/>
	<path class="st0" d="M328.4,293.3v2.8"/>
	<path class="st0" d="M327.4,291.6l-1,3.1h2.7"/>
</g>
<g>
	<g class="st1">
		<rect x="544.2" y="299.4" class="st4" width="24.1" height="6.6"/>
		<text transform="matrix(1 0 0 1 544.2377 304.2475)"><tspan x="0" y="0" class="st6" style="fill:#840000; font-size:5.616px;">Id:</tspan><tspan x="6.2" y="0" class="st6" style="fill:#840000; font-size:5.616px; letter-spacing:8;"> </tspan><tspan x="16.3" y="0" class="st6" style="fill:#840000; font-size:5.616px;">1/1</tspan></text>
	</g>
	<g class="st1">
		<rect x="544.2" y="299.4" class="st4" width="24.1" height="6.6"/>
		<text transform="matrix(1 0 0 1 544.2347 304.2455)"><tspan x="0" y="0" class="st6" style="fill:none;stroke:#840000;stroke-width:0.432;stroke-linecap:round;stroke-linejoin:round; font-size:5.616px;">Id:</tspan><tspan x="6.2" y="0" class="st6" style="fill:none;stroke:#840000;stroke-width:0.432;stroke-linecap:round;stroke-linejoin:round; font-size:5.616px; letter-spacing:8;"> </tspan><tspan x="16.3" y="0" class="st6" style="fill:none;stroke:#840000;stroke-width:0.432;stroke-linecap:round;stroke-linejoin:round; font-size:5.616px;">1/1</tspan></text>
	</g>
	<path class="st0" d="M545.5,304v-4.2"/>
	<path class="st0" d="M549.3,304v-4.2"/>
	<path class="st0" d="M549.3,303.8l-0.4,0.2h-0.8l-0.4-0.2l-0.1-0.1l-0.2-0.4V302l0.2-0.4l0.1-0.1l0.4-0.2h0.8l0.4,0.2"/>
	<path class="st0" d="M551.3,303.7l0.2,0.1l-0.2,0.2l-0.2-0.2L551.3,303.7v0.4"/>
	<path class="st0" d="M551.3,301.4l0.2,0.1l-0.2,0.2l-0.2-0.2L551.3,301.4v0.4"/>
	<path class="st0" d="M558.8,304h-2.4"/>
	<path class="st0" d="M557.6,304v-4.2l-0.4,0.6l-0.4,0.4l-0.4,0.2"/>
	<path class="st0" d="M563.6,299.6L560,305"/>
	<path class="st0" d="M567.3,304h-2.4"/>
	<path class="st0" d="M566.1,304v-4.2l-0.4,0.6l-0.4,0.4l-0.4,0.2"/>
</g>
<g>
	<path class="st0" d="M300.5,278.3h306.1"/>
</g>
<g>
	<g class="st1">
		<rect x="303.3" y="279.8" class="st4" width="26.7" height="8.9"/>
		<text transform="matrix(1 0 0 1 303.3256 286.2475)"><tspan x="0" y="0" class="st6" style="fill:#840000; font-size:7.56px; letter-spacing:2;">Title</tspan><tspan x="24.6" y="0" class="st6" style="fill:#840000; font-size:7.56px;">:</tspan></text>
	</g>
	<g class="st1">
		<rect x="303.3" y="279.8" class="st4" width="26.7" height="9"/>
		<text transform="matrix(1 0 0 1 303.3187 286.2426)"><tspan x="0" y="0" class="st6" style="fill:none;stroke:#840000;stroke-width:1.152;stroke-linecap:round;stroke-linejoin:round; font-size:7.56px; letter-spacing:2;">Title</tspan><tspan x="24.6" y="0" class="st6" style="fill:none;stroke:#840000;stroke-width:1.152;stroke-linecap:round;stroke-linejoin:round; font-size:7.56px;">:</tspan></text>
	</g>
	<path class="st3" d="M305.3,280.3h3.2"/>
	<path class="st3" d="M306.2,286l0.7-5.7"/>
	<path class="st3" d="M309.7,286l0.5-3.7"/>
	<path class="st3" d="M310.5,280.3l-0.3,0.3l0.2,0.3l0.4-0.3L310.5,280.3l-0.1,0.6"/>
	<path class="st3" d="M312.1,282.2h2.2"/>
	<path class="st3" d="M313.2,280.3l-0.6,4.9l0.2,0.5l0.5,0.3h0.6"/>
	<path class="st3" d="M316.5,286l-0.5-0.3l-0.1-0.5l0.6-4.9"/>
	<path class="st3" d="M320.9,285.7l-0.6,0.3h-1.1l-0.5-0.3l-0.2-0.5l0.3-2.2l0.4-0.6l0.6-0.2h1.1l0.5,0.2l0.2,0.6l-0.1,0.5l-2.8,0.6
		"/>
	<path class="st3" d="M323.6,285.5l0.2,0.2l-0.3,0.3l-0.2-0.3L323.6,285.5l-0.1,0.5"/>
	<path class="st3" d="M324,282.4l0.3,0.3l-0.4,0.3l-0.2-0.3L324,282.4l-0.1,0.6"/>
</g>
<g>
	<g class="st1">
		<rect x="303.3" y="270.5" class="st4" width="55.9" height="6.6"/>
		<text transform="matrix(1 0 0 1 303.3256 275.3031)"><tspan x="0" y="0" class="st6" style="fill:#840000; font-size:5.616px;">File:</tspan><tspan x="10.6" y="0" class="st6" style="fill:#840000; font-size:5.616px; letter-spacing:13;"> </tspan><tspan x="25.4" y="0" class="st6" style="fill:#840000; font-size:5.616px;">noname.sch</tspan></text>
	</g>
	<g class="st1">
		<rect x="303.3" y="270.5" class="st4" width="55.9" height="6.6"/>
		<text transform="matrix(1 0 0 1 303.3236 275.3022)"><tspan x="0" y="0" class="st6" style="fill:none;stroke:#840000;stroke-width:0.432;stroke-linecap:round;stroke-linejoin:round; font-size:5.616px;">File:</tspan><tspan x="10.6" y="0" class="st6" style="fill:none;stroke:#840000;stroke-width:0.432;stroke-linecap:round;stroke-linejoin:round; font-size:5.616px; letter-spacing:13;"> </tspan><tspan x="25.4" y="0" class="st6" style="fill:none;stroke:#840000;stroke-width:0.432;stroke-linecap:round;stroke-linejoin:round; font-size:5.616px;">noname.sch</tspan></text>
	</g>
	<path class="st0" d="M305.9,272.9h-1.4"/>
	<path class="st0" d="M304.5,275.1v-4.2h2"/>
	<path class="st0" d="M308.1,275.1v-2.8"/>
	<path class="st0" d="M308.1,270.8l-0.2,0.2l0.2,0.2l0.2-0.2L308.1,270.8v0.4"/>
	<path class="st0" d="M310.8,275.1l-0.4-0.2l-0.2-0.4v-3.7"/>
	<path class="st0" d="M314.1,274.9l-0.4,0.2h-0.8l-0.4-0.2l-0.2-0.4v-1.7l0.2-0.4l0.4-0.2h0.8l0.4,0.2l0.1,0.4v0.4l-2,0.4"/>
	<path class="st0" d="M316.1,274.7l0.2,0.1l-0.2,0.2l-0.2-0.2L316.1,274.7v0.4"/>
	<path class="st0" d="M316.1,272.5l0.2,0.1l-0.2,0.2l-0.2-0.2L316.1,272.5v0.4"/>
	<path class="st0" d="M321.3,272.3v2.8"/>
	<path class="st0" d="M321.3,272.6l0.2-0.1l0.4-0.2h0.6l0.4,0.2l0.2,0.4v2.2"/>
	<path class="st0" d="M325.8,275.1l-0.4-0.2l-0.2-0.1l-0.2-0.4v-1.2l0.2-0.4l0.2-0.1l0.4-0.2h0.6l0.4,0.2l0.1,0.1l0.2,0.4v1.2
		l-0.2,0.4l-0.1,0.1l-0.4,0.2H325.8"/>
	<path class="st0" d="M329,272.3v2.8"/>
	<path class="st0" d="M329,272.6l0.1-0.1l0.4-0.2h0.6l0.4,0.2l0.2,0.4v2.2"/>
	<path class="st0" d="M334.6,275.1v-2.2l-0.2-0.4l-0.4-0.2h-0.8l-0.4,0.2"/>
	<path class="st0" d="M334.6,274.9l-0.4,0.2h-1l-0.4-0.2l-0.2-0.4v-0.4l0.2-0.4l0.4-0.2h1l0.4-0.2"/>
	<path class="st0" d="M336.7,275.1v-2.8"/>
	<path class="st0" d="M336.7,272.6l0.2-0.1l0.4-0.2h0.6l0.4,0.2l0.2,0.4v2.2"/>
	<path class="st0" d="M338.5,272.9l0.1-0.4l0.4-0.2h0.6l0.4,0.2l0.2,0.4v2.2"/>
	<path class="st0" d="M343.9,274.9l-0.4,0.2h-0.8l-0.4-0.2l-0.2-0.4v-1.7l0.2-0.4l0.4-0.2h0.8l0.4,0.2l0.2,0.4v0.4l-2,0.4"/>
	<path class="st0" d="M346,274.7l0.1,0.1l-0.1,0.2l-0.2-0.2L346,274.7v0.4"/>
	<path class="st0" d="M347.8,274.9l0.4,0.2h0.9l0.4-0.2l0.2-0.4v-0.2l-0.2-0.4l-0.4-0.1h-0.6l-0.4-0.2l-0.2-0.4v-0.2l0.2-0.4
		l0.4-0.2h0.6l0.4,0.2"/>
	<path class="st0" d="M353.3,274.9l-0.4,0.2h-0.8l-0.4-0.2l-0.2-0.1l-0.1-0.4v-1.2l0.1-0.4l0.2-0.1l0.4-0.2h0.8l0.4,0.2"/>
	<path class="st0" d="M355.1,275.1v-4.2"/>
	<path class="st0" d="M356.9,275.1v-2.2l-0.2-0.4l-0.4-0.2h-0.6l-0.4,0.2l-0.2,0.1"/>
</g>
<g>
	<path class="st0" d="M300.5,261.3h306.1"/>
</g>
<g>
	<g class="st1">
		<rect x="303.3" y="262.9" class="st4" width="27.7" height="6.6"/>
		<text transform="matrix(1 0 0 1 303.3256 267.6713)"><tspan x="0" y="0" class="st6" style="fill:#840000; font-size:5.616px;">Sheet:</tspan><tspan x="16.2" y="0" class="st6" style="fill:#840000; font-size:5.616px; letter-spacing:8;"> </tspan><tspan x="26.2" y="0" class="st6" style="fill:#840000; font-size:5.616px;">/</tspan></text>
	</g>
	<g class="st1">
		<rect x="303.3" y="262.9" class="st4" width="27.7" height="6.6"/>
		<text transform="matrix(1 0 0 1 303.3236 267.6703)"><tspan x="0" y="0" class="st6" style="fill:none;stroke:#840000;stroke-width:0.432;stroke-linecap:round;stroke-linejoin:round; font-size:5.616px;">Sheet:</tspan><tspan x="16.2" y="0" class="st6" style="fill:none;stroke:#840000;stroke-width:0.432;stroke-linecap:round;stroke-linejoin:round; font-size:5.616px; letter-spacing:8;"> </tspan><tspan x="26.2" y="0" class="st6" style="fill:none;stroke:#840000;stroke-width:0.432;stroke-linecap:round;stroke-linejoin:round; font-size:5.616px;">/</tspan></text>
	</g>
	<path class="st0" d="M304.3,267.2l0.6,0.2h1l0.4-0.2l0.2-0.1l0.1-0.4v-0.4l-0.1-0.4l-0.2-0.2l-0.4-0.2l-0.8-0.2l-0.4-0.2l-0.1-0.1
		l-0.2-0.4V264l0.2-0.4l0.1-0.2l0.4-0.2h1l0.6,0.2"/>
	<path class="st0" d="M308.6,267.5v-4.2"/>
	<path class="st0" d="M310.4,267.5v-2.2l-0.2-0.4l-0.4-0.2h-0.6l-0.4,0.2l-0.2,0.1"/>
	<path class="st0" d="M314.1,267.2l-0.4,0.2h-0.8l-0.4-0.2l-0.2-0.4v-1.7l0.2-0.4l0.4-0.2h0.8l0.4,0.2l0.1,0.4v0.4l-2,0.4"/>
	<path class="st0" d="M317.7,267.2l-0.4,0.2h-0.9l-0.4-0.2l-0.2-0.4v-1.7l0.2-0.4l0.4-0.2h0.9l0.4,0.2l0.2,0.4v0.4l-2,0.4"/>
	<path class="st0" d="M319.1,264.6h1.6"/>
	<path class="st0" d="M319.7,263.2v3.7l0.2,0.4l0.4,0.2h0.4"/>
	<path class="st0" d="M322.1,267.1l0.2,0.1l-0.2,0.2l-0.2-0.2L322.1,267.1v0.4"/>
	<path class="st0" d="M322.1,264.9l0.2,0.1l-0.2,0.2l-0.2-0.2L322.1,264.9v0.4"/>
	<path class="st0" d="M330.4,263l-3.6,5.5"/>
</g>
<g>
	<path class="st0" d="M357.2,289.7v8.5"/>
</g>
<g>
	<path class="st0" d="M538.6,289.7v18.4"/>
</g>
<g>
	<g>
		<path class="st0" d="M54.3,9.6c0-1-0.8-1.8-1.8-1.8s-1.8,0.8-1.8,1.8"/>
		<path class="st0" d="M50.7,9.6c0-1-0.8-1.8-1.8-1.8s-1.8,0.8-1.8,1.8"/>
		<path class="st0" d="M47.1,9.6c0-1-0.8-1.8-1.8-1.8s-1.8,0.8-1.8,1.8"/>
		<path class="st0" d="M43.5,9.6c0-1-0.8-1.8-1.8-1.8s-1.8,0.8-1.8,1.8"/>
		<path class="st0" d="M39.9,9.6h-3.6"/>
		<path class="st0" d="M54.3,9.6h3.6"/>
	</g>
	<g>
		<g class="st1">
			<rect x="45.8" y="0" class="st4" width="3.3" height="5.6"/>
			<text transform="matrix(1 0 0 1 45.828 4.0795)" class="st5 st6 st7">L</text>
		</g>
		<g class="st1">
			<rect x="45.8" class="st4" width="3.3" height="5.6"/>
			<text transform="matrix(1 0 0 1 45.826 4.078)" class="st8 st6 st7">L</text>
		</g>
		<path class="st9" d="M48.2,3.9h-1.7V0.3"/>
	</g>
</g>
<g>
	<g>
		<path class="st10" d="M27,29.8h11.5"/>
		<path class="st10" d="M27,25.5h11.5"/>
	</g>
	<g>
		<path class="st0" d="M32.7,24.7v-7.9"/>
		<path class="st0" d="M32.7,30.5v7.9"/>
	</g>
	<g>
		<g class="st1">
			<rect x="41.3" y="25.5" class="st4" width="4" height="5.6"/>
			<text transform="matrix(1 0 0 1 41.3295 29.5678)" class="st5 st6 st7">C</text>
		</g>
		<g class="st1">
			<rect x="41.3" y="25.5" class="st4" width="4" height="5.6"/>
			<text transform="matrix(1 0 0 1 41.3275 29.5663)" class="st8 st6 st7">C</text>
		</g>
		<path class="st9" d="M44.1,29L44,29.2l-0.6,0.1h-0.3l-0.5-0.1l-0.4-0.4L42,28.5l-0.1-0.6v-0.5l0.1-0.7l0.2-0.4l0.4-0.3l0.5-0.2
			h0.3L44,26l0.1,0.1"/>
	</g>
</g>
<g>
	<g>
		<path class="st11" d="M30.9,43.8h3.6"/>
		<path class="st11" d="M32.4,45.6h0.7"/>
		<path class="st11" d="M32.7,42v-3.6"/>
		<path class="st11" d="M36.3,42h-7.2"/>
	</g>
</g>
<g>
	<g>
		<rect x="58.7" y="20.4" class="st12" width="5.8" height="14.4"/>
	</g>
	<g>
		<path class="st0" d="M61.5,20.4v-3.6"/>
		<path class="st0" d="M61.5,34.8v3.6"/>
	</g>
	<g>
		<g class="st1">
			<rect x="67.1" y="25.5" class="st4" width="6.9" height="5.6"/>
			<text transform="matrix(1 0 0 1 67.1415 29.5678)"><tspan x="0" y="0" class="st5 st6 st7 st13">R</tspan><tspan x="4.5" y="0" class="st5 st6 st7">s</tspan></text>
		</g>
		<g class="st1">
			<rect x="67.1" y="25.5" class="st4" width="6.9" height="5.6"/>
			<text transform="matrix(1 0 0 1 67.1395 29.5663)"><tspan x="0" y="0" class="st8 st6 st7 st13">R</tspan><tspan x="4.5" y="0" class="st8 st6 st7">s</tspan></text>
		</g>
		<path class="st9" d="M69.7,29.4l-1.2-1.7"/>
		<path class="st9" d="M67.6,29.4v-3.6H69l0.4,0.2l0.1,0.1l0.2,0.4V27l-0.2,0.4l-0.1,0.1L69,27.6h-1.4"/>
		<path class="st9" d="M71.1,29.2l0.4,0.1h0.6l0.4-0.1l0.1-0.4v-0.1l-0.1-0.4l-0.4-0.2h-0.5L71.2,28l-0.1-0.4v-0.1l0.1-0.4l0.4-0.1
			h0.5l0.4,0.1"/>
	</g>
</g>
<g>
	<g>
		<path class="st11" d="M59.7,43.8h3.6"/>
		<path class="st11" d="M61.2,45.6h0.7"/>
		<path class="st11" d="M61.5,42v-3.6"/>
		<path class="st11" d="M65.1,42h-7.2"/>
	</g>
</g>
<g>
	<g>
		<rect x="1.1" y="20.4" class="st12" width="5.8" height="14.4"/>
	</g>
	<g>
		<path class="st0" d="M3.9,20.4v-3.6"/>
		<path class="st0" d="M3.9,34.8v3.6"/>
	</g>
	<g>
		<g class="st1">
			<rect x="9.4" y="25.5" class="st4" width="6.9" height="5.6"/>
			<text transform="matrix(1 0 0 1 9.4081 29.5678)"><tspan x="0" y="0" class="st5 st6 st7">R</tspan><tspan x="4.3" y="0" class="st5 st6 st7">L</tspan></text>
		</g>
		<g class="st1">
			<rect x="9.4" y="25.5" class="st4" width="6.9" height="5.6"/>
			<text transform="matrix(1 0 0 1 9.4061 29.5663)"><tspan x="0" y="0" class="st8 st6 st7">R</tspan><tspan x="4.3" y="0" class="st8 st6 st7">L</tspan></text>
		</g>
		<path class="st9" d="M12.1,29.4l-1.2-1.7"/>
		<path class="st9" d="M10,29.4v-3.6h1.4l0.4,0.2l0.1,0.1l0.2,0.4V27l-0.2,0.4l-0.1,0.1l-0.4,0.1H10"/>
		<path class="st9" d="M15.3,29.4h-1.7v-3.6"/>
	</g>
</g>
<g>
	<g>
		<path class="st11" d="M2.1,43.8h3.6"/>
		<path class="st11" d="M3.6,45.6h0.7"/>
		<path class="st11" d="M3.9,42v-3.6"/>
		<path class="st11" d="M7.5,42H0.3"/>
	</g>
</g>
<g>
	<path class="st14" d="M57.9,9.6h3.6"/>
	<path class="st14" d="M61.5,9.6v7.2"/>
	<path class="st14" d="M32.7,16.8V9.6"/>
	<path class="st14" d="M32.7,9.6h3.6"/>
	<path class="st14" d="M3.9,9.6v7.2"/>
	<path class="st14" d="M3.9,9.6h28.8"/>
</g>
<g>
	<circle class="st15" cx="32.7" cy="9.6" r="1.4"/>
</g>
</svg>
